<?xml version="1.0" encoding="utf-8"?>
<svg version="1.1" width="32" height="32" viewBox="0 0 32 32" xmlns="http://www.w3.org/2000/svg">
  <title>close-outline</title>
  <path d="M4.688 27.312c-3.014-2.914-4.885-6.993-4.885-11.509 0-8.837 7.163-16 16-16 4.516 0 8.595 1.871 11.504 4.88l0.004 0.005c2.779 2.874 4.491 6.795 4.491 11.115 0 8.837-7.163 16-16 16-4.32 0-8.241-1.712-11.12-4.496l0.005 0.004zM6.944 25.056c2.318 2.318 5.519 3.751 9.056 3.751 7.073 0 12.807-5.734 12.807-12.807 0-3.537-1.433-6.738-3.751-9.056v0c-2.318-2.318-5.519-3.751-9.056-3.751-7.073 0-12.807 5.734-12.807 12.807 0 3.537 1.434 6.738 3.751 9.056v0zM22.784 11.472l-4.528 4.528 4.528 4.528-2.256 2.256-4.528-4.528-4.528 4.528-2.256-2.256 4.528-4.528-4.528-4.528 2.256-2.256 4.528 4.528 4.528-4.528 2.256 2.256z" style="fill: rgb(206, 36, 36);"/>
</svg>